<svg width="512" height="512" viewBox="0 0 512 512" fill="none" xmlns="http://www.w3.org/2000/svg">
<rect width="512" height="512" rx="128" fill="#325673"/>
<mask id="path-2-inside-1_12_2" fill="white">
<path fill-rule="evenodd" clip-rule="evenodd" d="M197.249 301.254L194.485 308.857L189.611 322.265L175.536 360.985L175.464 361.194C175.427 361.303 175.393 361.412 175.361 361.521C167.378 361.102 159.256 363.944 153.158 370.049C141.746 381.476 141.746 400.003 153.158 411.43C164.57 422.857 183.073 422.857 194.485 411.43C205.897 400.003 205.897 381.476 194.485 370.05C193.507 369.07 192.475 368.175 191.401 367.364C191.446 367.26 191.491 367.156 191.533 367.05L191.611 366.843L233.54 251.495L233.613 251.287C235.084 246.898 232.798 242.111 228.428 240.519C224.059 238.926 219.234 241.122 217.544 245.431L217.466 245.637L197.249 301.254ZM162.229 379.133C168.631 372.723 179.011 372.723 185.413 379.133C191.815 385.543 191.815 395.936 185.413 402.346C179.011 408.757 168.631 408.757 162.23 402.347C155.828 395.936 155.828 385.543 162.229 379.133Z"/>
<path fill-rule="evenodd" clip-rule="evenodd" d="M141.886 358.765C147.979 352.664 150.818 344.54 150.406 336.553L189.611 322.265L197.249 301.254L144.557 320.457C143.749 319.388 142.86 318.36 141.886 317.385C130.474 305.958 111.972 305.958 100.559 317.385C89.1473 328.812 89.1467 347.338 100.559 358.765C111.971 370.192 130.474 370.192 141.886 358.765ZM132.814 326.469C139.216 332.879 139.216 343.271 132.814 349.681C126.412 356.091 116.033 356.092 109.631 349.682C103.229 343.272 103.229 332.879 109.631 326.468C116.033 320.058 126.412 320.058 132.814 326.469Z"/>
<path d="M236.648 286.947L260.519 278.247C264.958 276.63 269.866 278.921 271.482 283.366C273.097 287.81 270.809 292.725 266.37 294.342L242.499 303.042C238.06 304.66 233.152 302.368 231.536 297.924C229.92 293.479 232.209 288.565 236.648 286.947Z"/>
<path d="M194.485 308.857L197.249 301.254L189.611 322.265L194.485 308.857Z"/>
</mask>
<path d="M205.707 304.329C207.405 299.658 204.995 294.494 200.323 292.796C195.652 291.098 190.488 293.508 188.79 298.18L205.707 304.329ZM194.485 308.857L186.027 305.782L186.027 305.782L194.485 308.857ZM181.153 319.19C179.455 323.862 181.865 329.025 186.537 330.723C191.208 332.422 196.372 330.011 198.07 325.34L181.153 319.19ZM197.249 301.254L188.79 298.18L186.027 305.782L194.485 308.857L202.944 311.932L205.707 304.329L197.249 301.254ZM194.485 308.857L186.027 305.782L181.153 319.19L189.611 322.265L198.07 325.34L202.944 311.932L194.485 308.857ZM189.611 322.265L198.07 325.34L205.707 304.329L197.249 301.254L188.79 298.18L181.153 319.19L189.611 322.265ZM150.406 336.553L144.242 319.641C136.814 322.348 132.021 329.586 132.43 337.482L150.406 336.553ZM141.886 358.765L154.622 371.484L154.622 371.484L141.886 358.765ZM100.559 358.765L87.8225 371.485L87.8226 371.485L100.559 358.765ZM100.559 317.385L87.8233 304.665L87.8233 304.665L100.559 317.385ZM141.886 317.385L154.622 304.665L154.622 304.665L141.886 317.385ZM144.557 320.457L130.192 331.304C134.958 337.617 143.288 340.078 150.72 337.369L144.557 320.457ZM197.249 301.254L203.412 318.166C208.411 316.344 212.348 312.404 214.166 307.404L197.249 301.254ZM132.814 349.681L145.55 362.401L145.55 362.401L132.814 349.681ZM132.814 326.469L145.551 313.749L145.55 313.749L132.814 326.469ZM109.631 326.468L96.8946 313.749L96.8944 313.749L109.631 326.468ZM109.631 349.682L96.8946 362.402L96.8947 362.402L109.631 349.682ZM228.428 240.519L234.592 223.607L234.592 223.607L228.428 240.519ZM233.613 251.287L250.606 257.222C250.631 257.15 250.656 257.079 250.68 257.006L233.613 251.287ZM233.54 251.495L250.457 257.645C250.483 257.574 250.508 257.502 250.533 257.431L233.54 251.495ZM191.611 366.843L208.449 373.205C208.476 373.134 208.502 373.063 208.528 372.992L191.611 366.843ZM191.533 367.05L208.289 373.626C208.317 373.554 208.344 373.483 208.371 373.411L191.533 367.05ZM191.401 367.364L174.916 360.136C171.57 367.767 173.899 376.698 180.546 381.723L191.401 367.364ZM194.485 370.05L207.221 357.33L207.221 357.33L194.485 370.05ZM194.485 411.43L207.221 424.15L207.221 424.15L194.485 411.43ZM153.158 411.43L140.422 424.15L140.422 424.15L153.158 411.43ZM153.158 370.049L140.422 357.33L140.422 357.33L153.158 370.049ZM175.361 361.521L174.417 379.496C182.757 379.934 190.303 374.578 192.641 366.561L175.361 361.521ZM175.464 361.194L158.47 355.258C158.445 355.33 158.421 355.402 158.396 355.475L175.464 361.194ZM175.536 360.985L158.619 354.836C158.594 354.907 158.568 354.978 158.543 355.05L175.536 360.985ZM217.466 245.637L200.628 239.275C200.601 239.346 200.575 239.417 200.549 239.488L217.466 245.637ZM217.544 245.431L200.788 238.855C200.76 238.926 200.733 238.997 200.706 239.068L217.544 245.431ZM185.413 379.133L198.149 366.413L198.149 366.413L185.413 379.133ZM162.229 379.133L149.493 366.413L149.493 366.413L162.229 379.133ZM162.23 402.347L149.493 415.066L149.493 415.066L162.23 402.347ZM185.413 402.346L198.149 415.066L198.149 415.066L185.413 402.346ZM242.499 303.042L236.335 286.13L236.335 286.13L242.499 303.042ZM266.37 294.342L272.533 311.254L272.533 311.254L266.37 294.342ZM260.519 278.247L254.356 261.336L260.519 278.247ZM236.648 286.947L242.811 303.859L236.648 286.947ZM189.611 322.265L206.528 328.414C208.918 321.84 207.282 314.476 202.334 309.532C197.385 304.587 190.02 302.958 183.448 305.353L189.611 322.265ZM150.406 336.553L132.43 337.482C132.591 340.602 131.492 343.7 129.15 346.045L141.886 358.765L154.622 371.484C164.466 361.628 169.046 348.478 168.382 335.624L150.406 336.553ZM141.886 358.765L129.15 346.045C124.769 350.432 117.676 350.432 113.295 346.045L100.559 358.765L87.8226 371.485C106.266 389.952 136.179 389.951 154.622 371.484L141.886 358.765ZM100.559 358.765L113.295 346.045C108.902 341.646 108.901 334.504 113.295 330.105L100.559 317.385L87.8233 304.665C69.393 323.119 69.3917 353.03 87.8225 371.485L100.559 358.765ZM100.559 317.385L113.295 330.105C117.676 325.718 124.769 325.718 129.15 330.105L141.886 317.385L154.622 304.665C136.179 286.198 106.267 286.198 87.8233 304.665L100.559 317.385ZM141.886 317.385L129.15 330.105C129.526 330.482 129.873 330.882 130.192 331.304L144.557 320.457L158.922 309.611C157.625 307.894 156.193 306.238 154.622 304.665L141.886 317.385ZM132.814 349.681L145.55 362.401C158.97 348.964 158.971 327.187 145.551 313.749L132.814 326.469L120.078 339.188C119.461 338.571 119.462 337.579 120.078 336.962L132.814 349.681ZM132.814 326.469L145.55 313.749C132.117 300.298 110.328 300.298 96.8946 313.749L109.631 326.468L122.367 339.188C121.737 339.818 120.708 339.818 120.078 339.188L132.814 326.469ZM109.631 326.468L96.8944 313.749C83.4747 327.186 83.4738 348.964 96.8946 362.402L109.631 349.682L122.367 336.962C122.984 337.58 122.983 338.571 122.367 339.188L109.631 326.468ZM109.631 349.682L96.8947 362.402C110.329 375.853 132.118 375.851 145.55 362.401L132.814 349.681L120.078 336.962C120.707 336.332 121.737 336.331 122.367 336.962L109.631 349.682ZM228.428 240.519L222.264 257.431C217.428 255.668 214.929 250.392 216.546 245.567L233.613 251.287L250.68 257.006C255.238 243.404 248.167 228.555 234.592 223.607L228.428 240.519ZM233.613 251.287L216.62 245.351L216.547 245.56L233.54 251.495L250.533 257.431L250.606 257.222L233.613 251.287ZM233.54 251.495L216.623 245.346L174.694 360.694L191.611 366.843L208.528 372.992L250.457 257.645L233.54 251.495ZM191.611 366.843L174.772 360.481L174.694 360.688L191.533 367.05L208.371 373.411L208.449 373.205L191.611 366.843ZM191.533 367.05L174.777 360.474C174.826 360.35 174.865 360.255 174.888 360.201C174.91 360.148 174.923 360.119 174.916 360.136L191.401 367.364L207.886 374.592C207.956 374.432 208.115 374.068 208.289 373.626L191.533 367.05ZM191.401 367.364L180.546 381.723C180.971 382.043 181.372 382.392 181.749 382.769L194.485 370.05L207.221 357.33C205.641 355.748 203.979 354.308 202.255 353.005L191.401 367.364ZM194.485 370.05L181.749 382.769C186.142 387.168 186.143 394.311 181.749 398.71L194.485 411.43L207.221 424.15C225.652 405.696 225.652 375.784 207.221 357.33L194.485 370.05ZM194.485 411.43L181.749 398.71C177.368 403.097 170.275 403.097 165.894 398.71L153.158 411.43L140.422 424.15C158.866 442.617 188.777 442.617 207.221 424.15L194.485 411.43ZM153.158 411.43L165.894 398.71C161.5 394.311 161.501 387.168 165.894 382.769L153.158 370.049L140.422 357.33C121.991 375.784 121.992 405.696 140.422 424.15L153.158 411.43ZM153.158 370.049L165.894 382.769C168.235 380.425 171.319 379.334 174.417 379.496L175.361 361.521L176.305 343.546C163.436 342.87 150.276 347.462 140.422 357.33L153.158 370.049ZM175.361 361.521L192.641 366.561C192.602 366.693 192.565 366.811 192.531 366.913L175.464 361.194L158.396 355.475C158.289 355.794 158.183 356.13 158.081 356.481L175.361 361.521ZM175.464 361.194L192.457 367.129L192.53 366.92L175.536 360.985L158.543 355.05L158.47 355.258L175.464 361.194ZM217.466 245.637L234.304 252L234.382 251.793L217.544 245.431L200.706 239.068L200.628 239.275L217.466 245.637ZM217.544 245.431L234.3 252.006C232.437 256.754 227.113 259.197 222.265 257.431L228.428 240.519L234.592 223.607C221.005 218.655 206.032 225.49 200.788 238.855L217.544 245.431ZM185.413 379.133L198.149 366.413C184.716 352.963 162.927 352.963 149.493 366.413L162.229 379.133L174.966 391.853C174.336 392.483 173.306 392.483 172.677 391.853L185.413 379.133ZM162.229 379.133L149.493 366.413C136.073 379.851 136.073 401.628 149.493 415.066L162.23 402.347L174.966 389.627C175.582 390.244 175.582 391.235 174.966 391.853L162.229 379.133ZM162.23 402.347L149.493 415.066C162.927 428.517 184.716 428.516 198.149 415.066L185.413 402.346L172.677 389.627C173.306 388.997 174.336 388.996 174.966 389.627L162.23 402.347ZM185.413 402.346L198.149 415.066C211.57 401.628 211.57 379.851 198.149 366.413L185.413 379.133L172.677 391.853C172.061 391.235 172.06 390.244 172.677 389.627L185.413 402.346ZM236.648 286.947L242.811 303.859L266.683 295.159L260.519 278.247L254.356 261.336L230.485 270.035L236.648 286.947ZM266.37 294.342L260.207 277.431L236.335 286.13L242.499 303.042L248.662 319.954L272.533 311.254L266.37 294.342ZM242.499 303.042L236.335 286.13C241.258 284.336 246.676 286.886 248.453 291.774L231.536 297.924L214.619 304.073C219.627 317.85 234.862 324.983 248.662 319.954L242.499 303.042ZM271.482 283.366L254.565 289.515C252.792 284.638 255.295 279.221 260.207 277.431L266.37 294.342L272.533 311.254C286.323 306.229 293.403 290.983 288.399 277.217L271.482 283.366ZM260.519 278.247L266.683 295.159C261.76 296.953 256.342 294.404 254.565 289.515L271.482 283.366L288.399 277.217C283.391 263.439 268.156 256.306 254.356 261.336L260.519 278.247ZM236.648 286.947L230.485 270.035C216.695 275.061 209.615 290.307 214.619 304.073L231.536 297.924L248.453 291.774C250.226 296.652 247.723 302.069 242.811 303.859L236.648 286.947ZM189.611 322.265L172.694 316.116L158.619 354.836L175.536 360.985L192.453 367.134L206.528 328.414L189.611 322.265ZM217.466 245.637L200.549 239.488L180.332 295.105L197.249 301.254L214.166 307.404L234.383 251.787L217.466 245.637ZM189.611 322.265L183.448 305.353L144.242 319.641L150.406 336.553L156.569 353.465L195.775 339.177L189.611 322.265ZM144.557 320.457L150.72 337.369L203.412 318.166L197.249 301.254L191.085 284.342L138.394 303.545L144.557 320.457Z" fill="#F1F7FF" mask="url(#path-2-inside-1_12_2)"/>
<path d="M276.639 102C280.799 102 284.266 105.19 284.611 109.336L286.471 131.648C299.151 134.745 311.089 139.733 321.973 146.292L338.601 132.76C341.782 130.17 346.407 130.407 349.308 133.308L378.693 162.692C381.594 165.593 381.83 170.218 379.24 173.399L365.708 190.025C372.267 200.909 377.254 212.848 380.351 225.528L402.664 227.389C406.81 227.734 410 231.201 410 235.361V276.639C410 280.799 406.81 284.266 402.664 284.611L380.351 286.471C377.147 299.59 371.919 311.915 365.021 323.1L377.642 338.606C380.231 341.788 379.994 346.412 377.094 349.312L347.708 378.698C344.807 381.599 340.183 381.836 337.001 379.246L321.048 366.262C310.414 372.549 298.792 377.342 286.471 380.351L284.611 402.664C284.266 406.81 280.799 410 276.639 410H235.361C231.201 410 227.734 406.81 227.389 402.664L225.528 380.348C224.778 380.164 224.029 379.975 223.283 379.778C220.518 379.049 219.05 376.081 220.028 373.395L228.973 348.82C229.871 346.352 232.524 345.014 235.082 345.609C241.802 347.172 248.804 348 256 348C306.81 348 348 306.81 348 256C348 205.19 306.81 164 256 164C205.19 164 164 205.19 164 256C164 264.08 165.043 271.916 166.999 279.382C167.679 281.977 166.346 284.719 163.824 285.637L139.317 294.557C136.669 295.52 133.739 294.109 132.961 291.4C132.493 289.77 132.057 288.127 131.652 286.471L109.336 284.611C105.19 284.266 102 280.799 102 276.639V235.361C102 231.201 105.19 227.734 109.336 227.389L131.648 225.528C134.745 212.848 139.732 200.909 146.291 190.025L132.76 173.399C130.17 170.218 130.407 165.593 133.308 162.692L162.692 133.308C165.593 130.407 170.218 130.17 173.399 132.76L190.025 146.291C200.909 139.732 212.848 134.745 225.528 131.648L227.389 109.336C227.734 105.19 231.201 102 235.361 102H276.639Z" fill="#F1F7FF"/>
</svg>
